{
  "source": "C:\\Users\\Peter\\Desktop\\stuff\\MIUN\\quantitative_research\\video_compression\\videos\\BVI-HD\\BVI-HD_CDVL_videos\\ORIG\\PaintingTilting_1920x1080_60fps.mp4",
  "output": "C:\\Users\\Peter\\Desktop\\stuff\\MIUN\\quantitative_research\\video_compression\\compressed_videos\\BVI-HD\\vp9\\3\\PaintingTilting_1920x1080_60fps_vp9.webm",
  "codec": "vp9",
  "ok": "Input #0, mov,mp4,m4a,3gp,3g2,mj2, from 'C:\\Users\\Peter\\Desktop\\stuff\\MIUN\\quantitative_research\\video_compression\\videos\\BVI-HD\\BVI-HD_CDVL_videos\\ORIG\\PaintingTilting_1920x1080_60fps.mp4':\n  Metadata:\n    major_brand     : isom\n    minor_version   : 512\n    compatible_brands: isomiso2avc1mp41\n    encoder         : Lavf54.28.101\n  Duration: 00:00:05.00, start: 0.000000, bitrate: 667707 kb/s\n  Stream #0:0[0x1](und): Video: h264 (High 4:4:4 Predictive) (avc1 / 0x31637661), yuv420p(progressive), 1920x1080, 667702 kb/s, 60 fps, 60 tbr, 60 tbn (default)\n    Metadata:\n      handler_name    : VideoHandler\n      vendor_id       : [0][0][0][0]\n[out#0/webm @ 0000018ab51f9180] Codec AVOption b:a (set bitrate (in bits/s)) has not been used for any stream. The most likely reason is either wrong type (e.g. a video option with no video streams) or that it is a private option of some decoder which was not actually used for any stream.\nStream mapping:\n  Stream #0:0 -> #0:0 (h264 (native) -> vp9 (libvpx-vp9))\nPress [q] to stop, [?] for help\n[libvpx-vp9 @ 0000018ab5e000c0] v1.15.2-100-g40561f514\nOutput #0, webm, to 'C:\\Users\\Peter\\Desktop\\stuff\\MIUN\\quantitative_research\\video_compression\\compressed_videos\\BVI-HD\\vp9\\3\\PaintingTilting_1920x1080_60fps_vp9.webm':\n  Metadata:\n    major_brand     : isom\n    minor_version   : 512\n    compatible_brands: isomiso2avc1mp41\n    encoder         : Lavf62.3.100\n  Stream #0:0(und): Video: vp9, yuv420p(tv, progressive), 1920x1080, q=2-31, 3000 kb/s, 60 fps, 1k tbn (default)\n    Metadata:\n      encoder         : Lavc62.11.100 libvpx-vp9\n      handler_name    : VideoHandler\n      vendor_id       : [0][0][0][0]\n    Side data:\n      cpb: bitrate max/min/avg: 0/0/0 buffer size: 3000000 vbv_delay: N/A\nframe=    0 fps=0.0 q=0.0 size=       0KiB time=N/A bitrate=N/A speed=N/A elapsed=0:00:00.52    \nframe=    6 fps=4.5 q=38.0 size=       1KiB time=00:00:00.10 bitrate=  50.6kbits/s speed=0.0751x elapsed=0:00:01.33    \nframe=   10 fps=5.4 q=37.0 size=       1KiB time=00:00:00.16 bitrate=  30.4kbits/s speed=0.0897x elapsed=0:00:01.85    \nframe=   13 fps=5.4 q=28.0 size=       1KiB time=00:00:00.21 bitrate=  23.4kbits/s speed=0.0904x elapsed=0:00:02.39    \nframe=   16 fps=5.5 q=35.0 size=       1KiB time=00:00:00.26 bitrate=  19.0kbits/s speed=0.0911x elapsed=0:00:02.92    \nframe=   19 fps=5.5 q=36.0 size=       1KiB time=00:00:00.31 bitrate=  16.0kbits/s speed=0.0919x elapsed=0:00:03.44    \nframe=   22 fps=5.6 q=36.0 size=       1KiB time=00:00:00.36 bitrate=  13.8kbits/s speed=0.0927x elapsed=0:00:03.95    \nframe=   25 fps=5.6 q=28.0 size=       1KiB time=00:00:00.41 bitrate=  12.2kbits/s speed=0.0931x elapsed=0:00:04.47    \nframe=   28 fps=5.6 q=35.0 size=       1KiB time=00:00:00.46 bitrate=  10.9kbits/s speed=0.0931x elapsed=0:00:05.01    \nframe=   31 fps=5.6 q=35.0 size=       1KiB time=00:00:00.51 bitrate=   9.8kbits/s speed=0.0935x elapsed=0:00:05.52    \nframe=   34 fps=5.6 q=36.0 size=       1KiB time=00:00:00.56 bitrate=   8.9kbits/s speed=0.0934x elapsed=0:00:06.06    \nframe=   38 fps=5.8 q=34.0 size=       1KiB time=00:00:00.63 bitrate=   8.0kbits/s speed=0.0963x elapsed=0:00:06.57    \nframe=   41 fps=5.8 q=35.0 size=       1KiB time=00:00:00.68 bitrate=   7.4kbits/s speed=0.0961x elapsed=0:00:07.11    \nframe=   45 fps=5.9 q=35.0 size=       1KiB time=00:00:00.75 bitrate=   6.8kbits/s speed=0.0981x elapsed=0:00:07.64    \nframe=   49 fps=6.0 q=26.0 size=       1KiB time=00:00:00.81 bitrate=   6.2kbits/s speed=0.0999x elapsed=0:00:08.17    \nframe=   52 fps=6.0 q=33.0 size=       1KiB time=00:00:00.86 bitrate=   5.8kbits/s speed=0.0994x elapsed=0:00:08.72    \nframe=   56 fps=6.1 q=35.0 size=       1KiB time=00:00:00.93 bitrate=   5.4kbits/s speed=0.101x elapsed=0:00:09.23    \nframe=   59 fps=6.1 q=35.0 size=       1KiB time=00:00:00.98 bitrate=   5.1kbits/s speed=0.101x elapsed=0:00:09.75    \nframe=   62 fps=6.0 q=35.0 size=       1KiB time=00:00:01.03 bitrate=   4.9kbits/s speed=0.101x elapsed=0:00:10.27    \nframe=   65 fps=6.0 q=34.0 size=       1KiB time=00:00:01.08 bitrate=   4.7kbits/s speed= 0.1x elapsed=0:00:10.80    \nframe=   68 fps=6.0 q=35.0 size=       1KiB time=00:00:01.13 bitrate=   4.5kbits/s speed=0.0999x elapsed=0:00:11.34    \nframe=   71 fps=6.0 q=35.0 size=       1KiB time=00:00:01.18 bitrate=   4.3kbits/s speed=0.0996x elapsed=0:00:11.87    \nframe=   74 fps=6.0 q=36.0 size=       1KiB time=00:00:01.23 bitrate=   4.1kbits/s speed=0.0994x elapsed=0:00:12.40    \nframe=   77 fps=5.9 q=34.0 size=       1KiB time=00:00:01.28 bitrate=   3.9kbits/s speed=0.0992x elapsed=0:00:12.94    \nframe=   80 fps=5.9 q=35.0 size=       1KiB time=00:00:01.33 bitrate=   3.8kbits/s speed=0.0988x elapsed=0:00:13.49    \nframe=   83 fps=5.9 q=35.0 size=       1KiB time=00:00:01.38 bitrate=   3.7kbits/s speed=0.0987x elapsed=0:00:14.01    \nframe=   86 fps=5.9 q=35.0 size=       1KiB time=00:00:01.43 bitrate=   3.5kbits/s speed=0.0985x elapsed=0:00:14.55    \nframe=   90 fps=6.0 q=35.0 size=       1KiB time=00:00:01.48 bitrate=   3.4kbits/s speed=0.0985x elapsed=0:00:15.06    \nframe=   93 fps=6.0 q=35.0 size=       1KiB time=00:00:01.55 bitrate=   3.3kbits/s speed=0.0992x elapsed=0:00:15.62    \nframe=   95 fps=5.9 q=35.0 size=       1KiB time=00:00:01.58 bitrate=   3.2kbits/s speed=0.0981x elapsed=0:00:16.14    \nframe=   98 fps=5.9 q=36.0 size=       1KiB time=00:00:01.63 bitrate=   3.1kbits/s speed=0.098x elapsed=0:00:16.66    \nframe=  101 fps=5.9 q=34.0 size=       1KiB time=00:00:01.68 bitrate=   3.0kbits/s speed=0.0979x elapsed=0:00:17.18    \nframe=  104 fps=5.9 q=35.0 size=       1KiB time=00:00:01.73 bitrate=   2.9kbits/s speed=0.0979x elapsed=0:00:17.71    \nframe=  107 fps=5.9 q=35.0 size=       1KiB time=00:00:01.78 bitrate=   2.8kbits/s speed=0.0977x elapsed=0:00:18.25    \nframe=  110 fps=5.9 q=36.0 size=       1KiB time=00:00:01.83 bitrate=   2.8kbits/s speed=0.0975x elapsed=0:00:18.79    \nframe=  113 fps=5.8 q=35.0 size=       1KiB time=00:00:01.88 bitrate=   2.7kbits/s speed=0.0973x elapsed=0:00:19.34    \nframe=  116 fps=5.8 q=35.0 size=       1KiB time=00:00:01.93 bitrate=   2.6kbits/s speed=0.0972x elapsed=0:00:19.88    \nframe=  119 fps=5.8 q=27.0 size=       1KiB time=00:00:01.98 bitrate=   2.6kbits/s speed=0.0972x elapsed=0:00:20.40    \nframe=  122 fps=5.8 q=35.0 size=       1KiB time=00:00:02.03 bitrate=   2.5kbits/s speed=0.0972x elapsed=0:00:20.92    \nframe=  126 fps=5.9 q=36.0 size=       1KiB time=00:00:02.10 bitrate=   2.4kbits/s speed=0.0978x elapsed=0:00:21.46    \nframe=  128 fps=5.8 q=36.0 size=       1KiB time=00:00:02.13 bitrate=   2.4kbits/s speed=0.097x elapsed=0:00:21.98    \nframe=  132 fps=5.9 q=36.0 size=    1280KiB time=00:00:02.20 bitrate=4766.3kbits/s speed=0.0977x elapsed=0:00:22.50    \nframe=  135 fps=5.9 q=35.0 size=    1280KiB time=00:00:02.25 bitrate=4660.3kbits/s speed=0.0976x elapsed=0:00:23.04    \nframe=  138 fps=5.9 q=36.0 size=    1280KiB time=00:00:02.30 bitrate=4559.0kbits/s speed=0.0976x elapsed=0:00:23.57    \nframe=  141 fps=5.9 q=35.0 size=    1280KiB time=00:00:02.35 bitrate=4462.0kbits/s speed=0.0975x elapsed=0:00:24.09    \nframe=  144 fps=5.8 q=34.0 size=    1280KiB time=00:00:02.40 bitrate=4369.1kbits/s speed=0.0974x elapsed=0:00:24.63    \nframe=  146 fps=5.8 q=35.0 size=    1280KiB time=00:00:02.43 bitrate=4309.2kbits/s speed=0.0967x elapsed=0:00:25.15    \nframe=  149 fps=5.8 q=35.0 size=    1280KiB time=00:00:02.48 bitrate=4222.5kbits/s speed=0.0966x elapsed=0:00:25.70    \nframe=  152 fps=5.8 q=28.0 size=    1280KiB time=00:00:02.53 bitrate=4139.1kbits/s speed=0.0966x elapsed=0:00:26.22    \nframe=  155 fps=5.8 q=35.0 size=    1280KiB time=00:00:02.58 bitrate=4059.0kbits/s speed=0.0965x elapsed=0:00:26.75    \nframe=  157 fps=5.8 q=35.0 size=    1280KiB time=00:00:02.61 bitrate=4007.3kbits/s speed=0.0959x elapsed=0:00:27.28    \nframe=  160 fps=5.8 q=35.0 size=    1280KiB time=00:00:02.66 bitrate=3932.2kbits/s speed=0.0959x elapsed=0:00:27.79    \nframe=  163 fps=5.8 q=35.0 size=    1280KiB time=00:00:02.71 bitrate=3859.8kbits/s speed=0.0959x elapsed=0:00:28.32    \nframe=  166 fps=5.7 q=35.0 size=    1280KiB time=00:00:02.76 bitrate=3790.0kbits/s speed=0.0958x elapsed=0:00:28.87    \nframe=  169 fps=5.8 q=36.0 size=    1280KiB time=00:00:02.81 bitrate=3722.8kbits/s speed=0.0958x elapsed=0:00:29.38    \nframe=  172 fps=5.8 q=35.0 size=    1280KiB time=00:00:02.86 bitrate=3657.8kbits/s speed=0.0958x elapsed=0:00:29.91    \nframe=  175 fps=5.7 q=36.0 size=    1280KiB time=00:00:02.91 bitrate=3595.1kbits/s speed=0.0958x elapsed=0:00:30.45    \nframe=  178 fps=5.7 q=35.0 size=    1280KiB time=00:00:02.96 bitrate=3534.5kbits/s speed=0.0957x elapsed=0:00:31.00    \nframe=  181 fps=5.7 q=35.0 size=    1280KiB time=00:00:03.01 bitrate=3475.9kbits/s speed=0.0957x elapsed=0:00:31.53    \nframe=  184 fps=5.7 q=36.0 size=    1280KiB time=00:00:03.06 bitrate=3419.3kbits/s speed=0.0956x elapsed=0:00:32.06    \nframe=  187 fps=5.7 q=36.0 size=    1280KiB time=00:00:03.11 bitrate=3364.4kbits/s speed=0.0956x elapsed=0:00:32.58    \nframe=  190 fps=5.7 q=35.0 size=    1280KiB time=00:00:03.16 bitrate=3311.3kbits/s speed=0.0956x elapsed=0:00:33.12    \nframe=  193 fps=5.7 q=36.0 size=    1280KiB time=00:00:03.21 bitrate=3259.8kbits/s speed=0.0956x elapsed=0:00:33.66    \nframe=  196 fps=5.7 q=36.0 size=    1280KiB time=00:00:03.26 bitrate=3209.9kbits/s speed=0.0955x elapsed=0:00:34.19    \nframe=  199 fps=5.7 q=36.0 size=    1280KiB time=00:00:03.31 bitrate=3161.5kbits/s speed=0.0955x elapsed=0:00:34.72    \nframe=  203 fps=5.8 q=35.0 size=    1280KiB time=00:00:03.38 bitrate=3099.2kbits/s speed=0.0959x elapsed=0:00:35.28    \nframe=  206 fps=5.8 q=36.0 size=    1280KiB time=00:00:03.43 bitrate=3054.1kbits/s speed=0.0958x elapsed=0:00:35.82    \nframe=  209 fps=5.7 q=36.0 size=    1280KiB time=00:00:03.48 bitrate=3010.3kbits/s speed=0.0958x elapsed=0:00:36.35    \nframe=  211 fps=5.7 q=36.0 size=    1280KiB time=00:00:03.51 bitrate=2981.7kbits/s speed=0.0953x elapsed=0:00:36.89    \nframe=  214 fps=5.7 q=35.0 size=    1280KiB time=00:00:03.56 bitrate=2939.9kbits/s speed=0.0952x elapsed=0:00:37.44    \nframe=  216 fps=5.7 q=35.0 size=    1280KiB time=00:00:03.60 bitrate=2912.7kbits/s speed=0.0948x elapsed=0:00:37.98    \nframe=  218 fps=5.6 q=35.0 size=    1280KiB time=00:00:03.63 bitrate=2886.0kbits/s speed=0.094x elapsed=0:00:38.64    \nframe=  220 fps=5.6 q=36.0 size=    1280KiB time=00:00:03.66 bitrate=2859.8kbits/s speed=0.0933x elapsed=0:00:39.29    \nframe=  222 fps=5.6 q=35.0 size=    1280KiB time=00:00:03.68 bitrate=2846.8kbits/s speed=0.0923x elapsed=0:00:39.92    \nframe=  223 fps=5.5 q=36.0 size=    1280KiB time=00:00:03.71 bitrate=2821.3kbits/s speed=0.0917x elapsed=0:00:40.55    \nframe=  226 fps=5.5 q=35.0 size=    1280KiB time=00:00:03.76 bitrate=2783.8kbits/s speed=0.0917x elapsed=0:00:41.09    \nframe=  228 fps=5.5 q=35.0 size=    1280KiB time=00:00:03.80 bitrate=2759.4kbits/s speed=0.0912x elapsed=0:00:41.64    \nframe=  230 fps=5.5 q=35.0 size=    1280KiB time=00:00:03.83 bitrate=2735.4kbits/s speed=0.0909x elapsed=0:00:42.16    \nframe=  233 fps=5.5 q=35.0 size=    1280KiB time=00:00:03.88 bitrate=2700.2kbits/s speed=0.091x elapsed=0:00:42.67    \nframe=  235 fps=5.4 q=36.0 size=    1280KiB time=00:00:03.91 bitrate=2677.2kbits/s speed=0.0907x elapsed=0:00:43.19    \nframe=  237 fps=5.4 q=37.0 size=    1280KiB time=00:00:03.93 bitrate=2665.9kbits/s speed=0.0899x elapsed=0:00:43.74    \nframe=  238 fps=5.4 q=36.0 size=    1280KiB time=00:00:03.96 bitrate=2643.5kbits/s speed=0.0895x elapsed=0:00:44.30    \nframe=  240 fps=5.3 q=35.0 size=    1280KiB time=00:00:04.00 bitrate=2621.4kbits/s speed=0.089x elapsed=0:00:44.92    \nframe=  242 fps=5.3 q=35.0 size=    1280KiB time=00:00:04.03 bitrate=2599.8kbits/s speed=0.0886x elapsed=0:00:45.50    \nframe=  244 fps=5.3 q=35.0 size=    1280KiB time=00:00:04.06 bitrate=2578.5kbits/s speed=0.0883x elapsed=0:00:46.06    \nframe=  246 fps=5.3 q=27.0 size=    1280KiB time=00:00:04.10 bitrate=2557.5kbits/s speed=0.0879x elapsed=0:00:46.67    \nframe=  247 fps=5.2 q=35.0 size=    1280KiB time=00:00:04.11 bitrate=2547.1kbits/s speed=0.0871x elapsed=0:00:47.24    \nframe=  250 fps=5.2 q=35.0 size=    1280KiB time=00:00:04.16 bitrate=2516.6kbits/s speed=0.0872x elapsed=0:00:47.76    \nframe=  252 fps=5.2 q=35.0 size=    1280KiB time=00:00:04.20 bitrate=2496.6kbits/s speed=0.0869x elapsed=0:00:48.31    \nframe=  254 fps=5.2 q=35.0 size=    1280KiB time=00:00:04.23 bitrate=2477.0kbits/s speed=0.0866x elapsed=0:00:48.89    \nframe=  256 fps=5.2 q=35.0 size=    1280KiB time=00:00:04.26 bitrate=2457.6kbits/s speed=0.0862x elapsed=0:00:49.47    \nframe=  258 fps=5.2 q=34.0 size=    2304KiB time=00:00:04.30 bitrate=4389.4kbits/s speed=0.086x elapsed=0:00:50.02    \nframe=  260 fps=5.1 q=36.0 size=    2304KiB time=00:00:04.33 bitrate=4355.6kbits/s speed=0.0856x elapsed=0:00:50.61    \nframe=  263 fps=5.1 q=35.0 size=    2304KiB time=00:00:04.38 bitrate=4305.9kbits/s speed=0.0856x elapsed=0:00:51.18    \nframe=  264 fps=5.1 q=35.0 size=    2304KiB time=00:00:04.40 bitrate=4289.6kbits/s speed=0.085x elapsed=0:00:51.74    \nframe=  266 fps=5.1 q=36.0 size=    2304KiB time=00:00:04.43 bitrate=4257.4kbits/s speed=0.0847x elapsed=0:00:52.31    \nframe=  268 fps=5.1 q=36.0 size=    2304KiB time=00:00:04.46 bitrate=4225.6kbits/s speed=0.0845x elapsed=0:00:52.88    \nframe=  270 fps=5.1 q=36.0 size=    2304KiB time=00:00:04.50 bitrate=4194.3kbits/s speed=0.0843x elapsed=0:00:53.41    \nframe=  272 fps=5.0 q=35.0 size=    2304KiB time=00:00:04.53 bitrate=4163.5kbits/s speed=0.0839x elapsed=0:00:54.01    \nframe=  274 fps=5.0 q=35.0 size=    2304KiB time=00:00:04.56 bitrate=4133.1kbits/s speed=0.0837x elapsed=0:00:54.57    \nframe=  275 fps=5.0 q=35.0 size=    2304KiB time=00:00:04.58 bitrate=4118.0kbits/s speed=0.0832x elapsed=0:00:55.10    \nframe=  276 fps=5.0 q=35.0 size=    2304KiB time=00:00:04.60 bitrate=4103.1kbits/s speed=0.0826x elapsed=0:00:55.66    \nframe=  276 fps=4.9 q=35.0 size=    2304KiB time=00:00:04.60 bitrate=4103.1kbits/s speed=0.0818x elapsed=0:00:56.21    \nframe=  276 fps=4.9 q=35.0 size=    2304KiB time=00:00:04.60 bitrate=4103.1kbits/s speed=0.0809x elapsed=0:00:56.83    \nframe=  276 fps=4.8 q=35.0 size=    2304KiB time=00:00:04.60 bitrate=4103.1kbits/s speed=0.0801x elapsed=0:00:57.40    \nframe=  276 fps=4.8 q=35.0 size=    2304KiB time=00:00:04.60 bitrate=4103.1kbits/s speed=0.0794x elapsed=0:00:57.95    \nframe=  276 fps=4.7 q=35.0 size=    2304KiB time=00:00:04.60 bitrate=4103.1kbits/s speed=0.0787x elapsed=0:00:58.48    \nframe=  276 fps=4.7 q=35.0 size=    2304KiB time=00:00:04.60 bitrate=4103.1kbits/s speed=0.0779x elapsed=0:00:59.01    \nframe=  276 fps=4.6 q=35.0 size=    2304KiB time=00:00:04.60 bitrate=4103.1kbits/s speed=0.0772x elapsed=0:00:59.58    \nframe=  276 fps=4.6 q=35.0 size=    2304KiB time=00:00:04.60 bitrate=4103.1kbits/s speed=0.0765x elapsed=0:01:00.12    \nframe=  276 fps=4.6 q=35.0 size=    2304KiB time=00:00:04.60 bitrate=4103.1kbits/s speed=0.0758x elapsed=0:01:00.64    \nframe=  276 fps=4.5 q=35.0 size=    2304KiB time=00:00:04.60 bitrate=4103.1kbits/s speed=0.0752x elapsed=0:01:01.18    \nframe=  276 fps=4.5 q=35.0 size=    2304KiB time=00:00:04.60 bitrate=4103.1kbits/s speed=0.0745x elapsed=0:01:01.72    \nframe=  276 fps=4.4 q=35.0 size=    2304KiB time=00:00:04.60 bitrate=4103.1kbits/s speed=0.0739x elapsed=0:01:02.25    \n[out#0/webm @ 0000018ab51f9180] video:3044KiB audio:0KiB subtitle:0KiB other streams:0KiB global headers:0KiB muxing overhead: 0.091467%\nframe=  300 fps=4.8 q=34.0 Lsize=    3047KiB time=00:00:05.00 bitrate=4991.7kbits/s speed=0.0801x elapsed=0:01:02.43    \n",
  "seconds": 62.84535574913025,
  "probe_out": {}
}